<?xml version="1.0" encoding="UTF-8" standalone="no"?>
<svg
   xmlns:osb="http://www.openswatchbook.org/uri/2009/osb"
   xmlns:dc="http://purl.org/dc/elements/1.1/"
   xmlns:cc="http://creativecommons.org/ns#"
   xmlns:rdf="http://www.w3.org/1999/02/22-rdf-syntax-ns#"
   xmlns:svg="http://www.w3.org/2000/svg"
   xmlns="http://www.w3.org/2000/svg"
   xmlns:sodipodi="http://sodipodi.sourceforge.net/DTD/sodipodi-0.dtd"
   xmlns:inkscape="http://www.inkscape.org/namespaces/inkscape"
   version="1.1"
   id="Layer_1"
   x="0px"
   y="0px"
   viewBox="0 0 217.00002 240.00001"
   enable-background="new 0 0 1535.5566 1693.9089"
   xml:space="preserve"
   inkscape:version="0.91 r13725"
   sodipodi:docname="Man-Head-Silhouette-gears3.svg"
   width="217.00003"
   height="240.00002"><metadata
     id="metadata9"><rdf:RDF><cc:Work
         rdf:about=""><dc:format>image/svg+xml</dc:format><dc:type
           rdf:resource="http://purl.org/dc/dcmitype/StillImage" /><dc:title /></cc:Work></rdf:RDF></metadata><defs
     id="defs7"><linearGradient
       id="linearGradient5649"
       osb:paint="solid"><stop
         style="stop-color:#99d9ea;stop-opacity:1;"
         offset="0"
         id="stop5651" /></linearGradient><linearGradient
       id="linearGradient5619"
       osb:paint="solid"><stop
         style="stop-color:#ffffff;stop-opacity:1;"
         offset="0"
         id="stop5621" /></linearGradient></defs><sodipodi:namedview
     pagecolor="#ffffff"
     bordercolor="#666666"
     borderopacity="1"
     objecttolerance="10"
     gridtolerance="10"
     guidetolerance="10"
     inkscape:pageopacity="0"
     inkscape:pageshadow="2"
     inkscape:window-width="1226"
     inkscape:window-height="816"
     id="namedview5"
     showgrid="false"
     inkscape:zoom="0.78812832"
     inkscape:cx="-56.026491"
     inkscape:cy="120.00001"
     inkscape:window-x="0"
     inkscape:window-y="0"
     inkscape:window-maximized="0"
     inkscape:current-layer="layer1_1_"
     fit-margin-top="0"
     fit-margin-left="0"
     fit-margin-right="0"
     fit-margin-bottom="0" /><g
     id="layer1_1_"
     transform="matrix(-0.14961115,0,0,0.14999999,384.60891,-41.515964)"
     style="fill:#99d9ea;fill-opacity:1;stroke-width:6.67532484;stroke-miterlimit:4;stroke-dasharray:none;stroke:#000000;stroke-opacity:1"><path
       id="path19449_1_"
       d="m 1633.0017,1876.7732 c 260.7216,0 521.4429,0 781.6719,0 -32.8428,-154.3505 -72.1501,-408.2728 -55.2302,-470.5089 27.8672,-105.5531 117.9214,-185.2161 151.761,-269.8579 172.1553,-430.1788 -38.2014,-804.6875 -513.9825,-854.3834 -420.1136,-43.8813 -653.7932,194.6746 -686.6362,441.1318 -3.4811,26.3881 0,52.7762 12.4423,80.1613 -57.7153,90.1186 -190.5698,223.0552 -202.0098,286.7859 -6.9684,38.3367 38.3108,51.7798 60.2063,65.2236 20.8989,6.9713 43.7847,1.9905 57.7152,18.92 9.9514,12.4475 -3.4811,33.3586 -6.4702,48.7938 -0.4982,25.3925 -30.3461,37.84 -27.3632,61.2396 2.9891,19.9164 19.9028,27.8827 35.328,40.3301 16.4214,12.9442 -41.7982,37.8394 -22.8917,60.7433 19.4044,22.4041 47.77,48.2947 37.8126,80.1597 -14.4288,49.2911 -42.2964,100.5735 -19.4045,138.9115 22.8917,37.8401 54.7323,60.2443 103.991,70.2002 77.1198,0 154.7438,1.5035 232.3616,1.5035 26.865,23.4005 45.7714,99.0791 60.7046,200.6459 l -0.01,0 z"
       inkscape:connector-curvature="0"
       style="fill:#009999;fill-opacity:1;stroke-width:6.67532484;stroke-miterlimit:4;stroke-dasharray:none;stroke:#000000;stroke-opacity:1" /></g><g
     id="g4177"
     transform="matrix(0.32740581,0,0,0.28657335,54.420533,11.610817)"><path
       style="opacity:1;fill:#f9f9f9"
       inkscape:connector-curvature="0"
       id="path4"
       d="m 57.65356,1.3077098 c 0.953259,-0.45353005 2.018393,-1.97736005 3.063715,-0.97003005 3.844503,1.77101005 3.962204,6.90797005 7.114487,9.35520005 4.121857,-1.26151 5.846581,-6.88348 10.644343,-6.84268 3.837511,2.83314 2.115118,8.2406002 4.515747,11.8152502 4.309479,-0.15973 7.772912,-4.8793002 12.257194,-3.19923 2.545133,3.85097 -0.531402,8.41897 0.569858,12.50779 4.117196,1.11227 8.782106,-1.94939 12.661576,0.67972 1.39842,4.48406 -3.16977,7.92813 -3.25717,12.20233 3.50655,2.45772 8.94875,0.69254 11.72113,4.53069 0.0419,4.76154 -5.43171,6.56869 -6.82431,10.61787 2.71411,3.30066 8.15048,3.51169 9.87987,7.85351 l 0,0.0991 c -1.69559,4.41877 -7.27764,4.54235 -9.88686,7.95611 1.49864,4.01071 6.70195,5.79337 6.91637,10.47563 -2.71061,3.83698 -8.32296,2.18607 -11.80503,4.64728 0.11537,4.23106 4.53905,7.54335 3.32708,12.04375 -2.69313,1.9261 -6.2731,1.0831 -9.35313,0.6051 -1.091936,-0.3066 -2.526487,-0.3707 -3.417983,0.3241 -0.968409,4.0597 1.950803,8.5986 -0.552378,12.4262 -4.47962,1.4609 -7.916249,-3.043 -12.203587,-3.2389 -2.398298,3.5432 -0.833228,8.8387 -4.473794,11.7908 -4.715022,0.045 -6.595904,-5.3993 -10.61754,-6.8835 -3.410992,2.6303 -3.531023,8.2033 -7.957038,9.8962 l -0.101386,0 c -4.378235,-1.6987 -4.513416,-7.1901 -7.847494,-9.874 -4.062424,1.3874 -5.958455,6.9872 -10.720091,6.8462 -3.589291,-2.9614 -2.140756,-8.1334 -4.36192,-11.7617 -4.350267,0.049 -7.786896,4.7394 -12.313131,3.2156 -2.236314,-3.5618 -0.102551,-7.7404 -0.32863,-11.5762 0.124693,-1.3723 -1.407747,-1.3525 -2.371495,-1.3688 -3.492566,0.4629 -7.310266,1.7827 -10.523147,-0.2693 -1.428724,-4.5447 3.101007,-7.92 3.318928,-12.21169 C 11.210706,80.5727 5.8605654,82.27375 2.9902984,78.58134 2.5917474,73.73819 8.5397143,71.95902 9.716722,67.81308 7.0841871,64.54622 1.5137949,64.35151 0,59.94091 1.3856059,55.40205 7.1599351,55.3764 9.749352,51.99062 8.5082497,47.84818 2.8994008,46.23807 2.9005662,41.45787 5.6193371,37.56726 11.180407,39.25665 14.725413,36.82224 14.51565,33.4353 11.850485,30.80153 11.179241,27.52534 c 0.168976,-1.15424 -0.39389,-3.10479 1.196819,-3.32398 3.668534,-1.99602 7.860313,0.99218 11.661697,-0.21103 1.05115,-4.09581 -2.000912,-8.84803 0.695717,-12.61389 4.49477,-1.4130702 7.849825,3.08031 12.109193,3.32748 2.491527,-3.5455 0.731843,-9.1173502 4.647432,-11.8525502 4.73833,0.0734 6.468881,5.49839 10.541793,6.91729 2.730424,-2.14292 3.149952,-6.093 5.621668,-8.46095 m 2.247968,-0.0385 c -4.042614,1.93073 -3.89811,7.68213 -7.726298,9.8273802 -4.300156,-0.9642 -5.893195,-6.4486002 -10.342517,-6.9592602 -3.329416,3.03717 -1.400755,8.5472202 -4.375904,11.7534502 -4.37707,0.34977 -7.581793,-4.27769 -11.969351,-3.44407 -2.244472,3.92326 1.365795,8.61718 -0.510425,12.60223 -4.078739,1.56231 -8.549037,-1.74186 -12.472784,0.37309 -0.885669,4.42926 3.875967,7.64248 3.398172,12.06242 -3.254834,2.97888 -8.7308323,0.94321 -11.7257922,4.33016 0.3810708,4.07016 5.1438722,5.60332 6.4886912,9.1873 0.199276,0.49784 0.816913,1.20671 0.177134,1.64042 -2.4414168,3.3543 -7.7169745,3.40211 -9.5372575,7.30904 1.9170074,4.07716 7.7775725,3.8568 9.8204385,7.80338 -1.032504,4.24855 -6.4956835,5.87615 -6.9245337,10.34038 3.120818,3.17126 8.4791157,1.41074 11.7257917,4.28469 0.157323,3.68308 -2.638361,6.49641 -3.550833,9.91948 0.104882,0.9199 -0.316977,2.2607 0.949763,2.4554 3.774582,1.3711 7.871967,-1.5541 11.669855,0.092 1.800472,3.9921 -1.743369,8.5752 0.460315,12.4985 4.439999,1.0015 7.741447,-3.9781 12.133666,-3.3298 2.785197,3.3461 1.013858,8.5577 4.170802,11.638 4.501763,-0.3498 6.196188,-6.0079 10.485856,-6.9021 3.764093,2.2642 3.618424,7.8885 7.645888,9.8052 4.210424,-1.757 3.937731,-7.7789 7.88595,-9.8402 4.267527,1.0412 5.848912,6.5372 10.329699,6.9406 3.124314,-3.1129 1.471842,-8.2429 4.152156,-11.6485 4.373574,-0.5818 7.68551,4.2112 12.124343,3.3671 2.258456,-3.9069 -1.397259,-8.609 0.554709,-12.5731 4.051938,-1.6334 8.540878,1.7839 12.442488,-0.4279 0.83089,-4.4257 -3.99018,-7.75789 -3.35739,-12.12886 3.39002,-2.73054 8.56652,-1.00267 11.6582,-4.16343 -0.4673,-4.50038 -6.09247,-6.15596 -6.93735,-10.48962 2.27361,-3.7507 7.95471,-3.59564 9.80529,-7.65764 -1.84825,-4.10631 -7.65871,-3.94075 -9.81578,-7.78822 0.9789,-4.29402 6.58425,-5.90063 6.90123,-10.41384 -3.04157,-3.25286 -8.52573,-1.35594 -11.69083,-4.31617 -0.30416,-4.37562 4.27685,-7.58652 3.40633,-11.9808 -3.90277,-2.2327 -8.51524,1.36177 -12.49959,-0.47336 -1.718897,-4.062 1.773669,-8.60901 -0.481291,-12.51945 -4.429511,-0.89658 -7.708817,4.08649 -12.09754,3.34381 C 79.485302,12.44544 81.317238,7.1895598 78.102027,4.1395598 73.60143,4.5802698 72.016548,10.1253 67.69425,11.09183 63.822944,8.9220898 64.025715,3.0097998 59.901528,1.2691098 Z" /><path
       style="opacity:1;fill:#f9f9f9"
       inkscape:connector-curvature="0"
       id="path6"
       d="m 59.901528,1.2692398 c 4.124187,1.74069 3.921416,7.65298 7.792722,9.8227202 4.322298,-0.96653 5.90718,-6.5115602 10.407777,-6.9522702 3.215211,3.05 1.383275,8.3058802 4.170802,11.6473602 4.388723,0.74268 7.668029,-4.24039 12.09754,-3.34381 2.25496,3.91044 -1.237606,8.45745 0.481291,12.51945 3.98435,1.83513 8.59682,-1.75934 12.49959,0.47336 0.87052,4.39428 -3.71049,7.60518 -3.40633,11.9808 3.1651,2.96023 8.64926,1.06331 11.69083,4.31617 -0.31698,4.51321 -5.92233,6.11982 -6.90123,10.41384 2.15707,3.84747 7.96753,3.68191 9.81578,7.78822 -1.85058,4.062 -7.53168,3.90694 -9.80529,7.65764 0.84488,4.33366 6.47005,5.98924 6.93735,10.48962 -3.09168,3.16076 -8.26818,1.43289 -11.6582,4.16343 -0.63279,4.37097 4.18828,7.70313 3.35739,12.12883 -3.90161,2.2118 -8.39055,-1.2055 -12.442488,0.4279 -1.951968,3.9641 1.703747,8.6662 -0.554709,12.5731 -4.438833,0.8441 -7.750769,-3.9489 -12.124343,-3.3671 -2.680314,3.4056 -1.027842,8.5356 -4.152156,11.6485 -4.480787,-0.4034 -6.062172,-5.8994 -10.329699,-6.9406 -3.948219,2.0613 -3.675526,8.0832 -7.88595,9.8402 -4.027464,-1.9167 -3.881795,-7.541 -7.645888,-9.8052 -4.289668,0.8942 -5.984093,6.5523 -10.485856,6.9021 -3.156944,-3.0803 -1.385605,-8.2919 -4.170802,-11.638 -4.392219,-0.6483 -7.693667,4.3313 -12.133666,3.3298 -2.203684,-3.9233 1.340157,-8.5064 -0.460315,-12.4985 -3.797888,-1.6462 -7.895273,1.279 -11.669855,-0.092 -1.26674,-0.1947 -0.844881,-1.5355 -0.949763,-2.4554 0.912472,-3.42304 3.708156,-6.23637 3.550833,-9.91945 C 12.680217,79.506 7.3219193,81.26652 4.2011013,78.09526 4.6299515,73.63103 10.093131,72.00343 11.125635,67.75488 9.082769,63.8083 3.2222039,64.02866 1.3051965,59.9515 3.1254795,56.04457 8.4010372,55.99676 10.842454,52.64246 11.482233,52.20875 10.864594,51.49988 10.66532,51.00204 9.320501,47.41806 4.5576996,45.8849 4.1766288,41.81474 7.1715887,38.42779 12.647587,40.46346 15.902421,37.48458 16.380216,33.06464 11.61858,29.85142 12.504249,25.42216 c 3.923747,-2.11495 8.394045,1.18922 12.472784,-0.37309 1.87622,-3.98505 -1.734047,-8.67897 0.510425,-12.60223 4.387558,-0.83362 7.592281,3.79384 11.969351,3.44407 2.975149,-3.20623 1.046488,-8.7162802 4.375904,-11.7534502 4.449322,0.51066 6.042361,5.9950602 10.342517,6.9592602 3.828188,-2.1452502 3.683684,-7.8966502 7.726298,-9.8273802 M 58.764142,15.24151 c -8.649258,0.22501 -17.228594,2.99053 -24.305789,7.98409 -12.780437,8.71395 -20.398357,24.48044 -19.036058,39.9263 0.842551,14.54346 9.524439,28.2381 22.138231,35.4434 12.373729,7.3102 28.332087,7.9771 41.298981,1.813 C 88.45037,95.9359 96.359628,87.9518 100.67027,78.27831 106.42479,65.75303 105.81881,50.54734 99.14716,38.49658 91.417362,24.01491 75.176988,14.61075 58.764142,15.24151 Z" /><path
       style="opacity:1;fill:#f9f9f9"
       inkscape:connector-curvature="0"
       id="path8"
       d="m 58.764142,15.24141 c 16.412846,-0.63076 32.65322,8.7734 40.383018,23.25507 6.67165,12.05076 7.27763,27.25645 1.52311,39.78173 C 96.359628,87.9517 88.45037,95.9358 78.859507,100.4082 65.892613,106.5723 49.934255,105.9054 37.560526,98.5952 24.946734,91.3899 16.264846,77.69526 15.422295,63.1518 14.059996,47.70594 21.677916,31.93945 34.458353,23.2255 41.535548,18.23194 50.114884,15.46642 58.764142,15.24141 m 1.132724,1.18805 c -5.462014,0.0933 -10.920532,1.04465 -15.99798,3.0943 3.113826,7.74742 6.334865,15.47618 9.576879,23.16763 3.391181,-1.32912 7.143621,-1.46903 10.686297,-0.70653 2.071999,-8.08553 4.364251,-16.12209 6.408282,-24.20878 -3.494897,-0.87676 -7.067872,-1.34196 -10.673478,-1.34662 m 11.893603,1.67773 c -2.258456,8.04589 -4.391054,16.14308 -6.516659,24.22744 1.942645,0.53515 3.691841,1.54831 5.407242,2.57547 5.126393,-6.60949 10.234139,-13.24814 15.27313,-19.92059 -4.294329,-3.03601 -9.039651,-5.62314 -14.163713,-6.88232 m -29.237567,1.90625 c -4.536723,1.94123 -8.684218,4.75105 -12.317792,8.08086 -0.219086,0.25184 -0.779622,0.56547 -0.391559,0.91291 5.549416,5.64296 11.19206,11.19848 16.765949,16.81813 0.291338,0.25883 0.751653,0.89424 1.122236,0.35909 1.265574,-1.35128 3.200062,-2.10212 4.549542,-3.13277 C 49.231546,35.39984 45.974382,27.81449 42.87454,20.17783 42.8256,20.0286 42.70906,19.89568 42.552902,20.01344 m 44.257815,5.80502 c -5.002864,6.66197 -10.215493,13.2085 -15.158925,19.88796 2.801511,2.30731 4.777952,5.46691 5.947967,8.87484 8.026959,-2.14293 16.049256,-4.315 24.082041,-6.44044 C 99.41985,39.34409 93.970653,31.37165 86.810717,25.81846 m -58.038126,3.84631 c -6.316219,6.46376 -10.577919,14.97834 -11.765414,23.95345 8.22973,1.22537 16.50957,2.26535 24.767269,3.28435 0.617637,-3.54201 2.25496,-6.89864 4.696376,-9.54174 C 40.616084,41.42522 34.720558,35.50827 28.772591,29.66477 m 30.341157,13.10008 c -7.437289,0.17721 -14.195177,5.81551 -15.862799,13.04294 -1.676944,6.22241 0.72252,13.23998 5.682267,17.30198 5.550581,4.91311 14.372311,5.25005 20.486923,1.18339 4.476125,-2.93691 7.395337,-8.0832 7.699494,-13.41836 0.799433,-9.78075 -8.172627,-18.96339 -18.005885,-18.10995 m 42.748682,6.51855 c -8.003651,2.1814 -16.042264,4.25438 -24.033096,6.47192 0.710866,1.92024 0.194614,4.22173 0.632787,5.9939 8.221573,1.08312 16.454799,2.35512 24.704339,3.17009 0.65143,-5.23024 0.17014,-10.55374 -1.01852,-15.67205 -0.0722,0.008 -0.21442,0.0268 -0.28551,0.0361 m -85.090655,5.54386 c -0.702708,5.22441 -0.240063,10.58056 0.952094,15.70586 8.128345,-1.93656 16.187933,-4.33365 24.302293,-6.39963 -0.41137,-1.9832 -0.616472,-4.01303 -0.358929,-6.03587 -8.296155,-1.10061 -16.58998,-2.23154 -24.895458,-3.27036 m 61.294126,8.06804 C 77.596263,66.51655 75.751508,69.7974 73.414973,72.52911 79.327979,78.3901 85.161741,84.33853 91.102716,90.1692 97.48303,83.68562 101.63169,75.12441 102.96602,66.1353 94.659377,65.10465 86.369048,63.93991 78.065901,62.89526 m -36.198227,2.49387 c -7.908092,2.09862 -15.829004,4.18325 -23.709128,6.37165 2.404126,8.70229 7.756597,16.77499 14.860595,22.20002 5.140377,-6.52098 10.179367,-13.15845 15.191555,-19.77961 -2.662834,-2.37611 -4.803589,-5.39346 -5.87455,-8.83637 l -0.468472,0.0443 m 30.519457,8.01907 c -1.343654,1.28482 -2.898236,2.34696 -4.592661,3.11179 -0.259874,0.063 -0.24822,0.28565 -0.154992,0.49201 3.179086,7.62616 6.315054,15.27451 9.489478,22.90301 4.87118,-2.0636 9.272722,-5.1358 13.138201,-8.7303 C 84.355316,85.24909 78.402688,79.06981 72.387131,73.40819 m -23.219679,1.4737 C 44.15876,81.49255 39.076651,88.05075 34.041156,94.6393 c -0.137511,0.1679 0.08857,0.2985 0.199276,0.3952 4.176629,3.0372 8.87184,5.3993 13.85839,6.7646 2.218834,-8.0517 4.333952,-16.15128 6.514329,-24.21932 -1.907685,-0.69954 -3.736125,-1.60661 -5.445699,-2.69789 m 16.929098,2.36678 c -3.299118,1.31514 -6.92803,1.20437 -10.373982,0.68438 -2.146582,8.03423 -4.303652,16.06845 -6.447904,24.10145 8.714518,2.2852 18.377633,1.6649 26.655143,-1.7652 -2.907558,-7.5224 -6.182203,-14.95842 -9.196974,-22.461 -0.121197,-0.27865 -0.231906,-0.76133 -0.636283,-0.55963 z" /><path
       style="opacity:1;fill:#f9f9f9"
       inkscape:connector-curvature="0"
       id="path10"
       d="m 71.790469,18.10719 c 5.124062,1.25918 9.869384,3.84631 14.163713,6.88232 -5.038991,6.67245 -10.146737,13.3111 -15.27313,19.92059 -1.715401,-1.02716 -3.464597,-2.04032 -5.407242,-2.57547 2.125605,-8.08436 4.258203,-16.18155 6.516659,-24.22744 z" /><path
       style="opacity:1;fill:#f9f9f9"
       inkscape:connector-curvature="0"
       id="path12"
       d="m 42.552902,20.01344 c 0.156158,-0.11776 0.272693,0.0152 0.321638,0.16439 3.099842,7.63666 6.357006,15.22201 9.406738,22.87383 -1.34948,1.03065 -3.283968,1.78149 -4.549542,3.13277 C 47.361153,46.71958 46.900838,46.08417 46.6095,45.82534 41.035611,40.20569 35.392967,34.65017 29.843551,29.00721 c -0.388063,-0.34744 0.172473,-0.66107 0.391559,-0.91291 3.633574,-3.32981 7.781069,-6.13963 12.317792,-8.08086 z" /><path
       style="opacity:1;fill:#f9f9f9"
       inkscape:connector-curvature="0"
       id="path14"
       d="m 59.113748,42.76485 c 9.833258,-0.85344 18.805318,8.3292 18.005885,18.10995 -0.304157,5.33516 -3.223369,10.48145 -7.699494,13.41836 -6.114612,4.06666 -14.936342,3.72972 -20.486923,-1.18339 -4.959747,-4.062 -7.359211,-11.07957 -5.682267,-17.30198 1.667622,-7.22743 8.42551,-12.86573 15.862799,-13.04294 m -0.55937,4.77786 c -6.398959,0.57596 -11.627902,6.76456 -11.025414,13.18868 0.262205,6.25273 5.930487,11.74646 12.215241,11.59606 4.939936,0.21802 9.738863,-2.96606 11.627902,-7.50375 1.977606,-4.46074 0.983559,-10.09087 -2.495023,-13.53145 -2.592912,-2.78184 -6.555116,-4.18792 -10.322706,-3.74954 z" /><path
       style="opacity:1;fill:#f9f9f9"
       inkscape:connector-curvature="0"
       id="path16"
       d="m 58.554378,47.54271 c 3.76759,-0.43838 7.729794,0.9677 10.322706,3.74954 3.478582,3.44058 4.472629,9.07071 2.495023,13.53145 -1.889039,4.53769 -6.687966,7.72177 -11.627902,7.50375 -6.284754,0.1504 -11.953036,-5.34333 -12.215241,-11.59606 -0.602488,-6.42412 4.626455,-12.61272 11.025414,-13.18868 m 0.117701,1.16357 c -4.238392,0.44654 -8.044439,3.48255 -9.392753,7.53522 -2.206016,5.80852 1.460188,12.8086 7.390675,14.48866 4.49477,1.36411 9.737698,-0.34161 12.427335,-4.22173 2.388976,-3.2517 2.77937,-7.81853 1.017354,-11.44099 -1.947306,-4.26137 -6.787022,-6.97442 -11.442611,-6.36116 z" /><path
       style="opacity:1;fill:#f9f9f9"
       inkscape:connector-curvature="0"
       id="path18"
       d="m 101.86243,49.2834 c 0.0711,-0.009 0.21326,-0.028 0.28551,-0.0361 1.18866,5.11831 1.66995,10.44181 1.01852,15.67205 -8.24954,-0.81497 -16.482766,-2.08697 -24.704339,-3.17009 -0.438173,-1.77217 0.07808,-4.07366 -0.632787,-5.9939 7.990832,-2.21754 16.029445,-4.29052 24.033096,-6.47192 z" /><path
       style="opacity:1;fill:#f9f9f9"
       inkscape:connector-curvature="0"
       id="path20"
       d="m 16.771775,54.82726 c 8.305478,1.03882 16.599303,2.16975 24.895458,3.27036 -0.257543,2.02284 -0.05244,4.05267 0.358929,6.03587 -8.11436,2.06598 -16.173948,4.46307 -24.302293,6.39963 -1.192157,-5.1253 -1.654802,-10.48145 -0.952094,-15.70586 z" /><path
       style="opacity:1;fill:#f9f9f9"
       inkscape:connector-curvature="0"
       id="path22"
       d="m 72.387131,73.40824 c 6.015557,5.66162 11.968185,11.8409 17.880026,17.77646 -3.865479,3.5945 -8.267021,6.6667 -13.138201,8.7303 -3.174424,-7.6285 -6.310392,-15.2768 -9.489478,-22.90296 -0.09323,-0.20636 -0.104882,-0.42905 0.154992,-0.49201 1.694425,-0.76483 3.249007,-1.82697 4.592661,-3.11179 z" /><path
       style="opacity:1;fill:#f9f9f9"
       inkscape:connector-curvature="0"
       id="path24"
       d="m 49.167452,74.88194 c 1.709574,1.09128 3.538014,1.99835 5.445699,2.69789 -2.180377,8.06804 -4.295495,16.16757 -6.514329,24.21927 -4.98655,-1.3653 -9.681761,-3.7274 -13.85839,-6.7646 -0.110709,-0.097 -0.336787,-0.2273 -0.199276,-0.3952 5.035495,-6.5885 10.117604,-13.1467 15.126296,-19.75736 z" /></g><g
     id="g4205"
     transform="matrix(0.71702401,0,0,0.71702401,6.2050463,39.901626)"><path
       style="opacity:1;fill:#f9f9f9"
       inkscape:connector-curvature="0"
       id="path4-8"
       d="M 57.61851,1.31555 C 58.574584,0.93433996 59.592453,-0.66744004 60.61382,0.31297996 64.5174,2.05582 64.645653,7.22488 67.797199,9.71615 71.932802,8.44895 73.72136,2.7005 78.532044,2.90101 c 3.722858,2.90046 2.087039,8.19659 4.422424,11.79185 4.322154,-0.19119 7.808326,-4.88578 12.294878,-3.22104 1.998427,3.29449 0.534002,7.15904 0.185385,10.70767 0.01049,1.25905 0.419739,2.33623 1.894658,2.17418 3.725191,-0.20634 7.803661,-1.85942 11.233871,0.34624 0.97589,4.19797 -2.46481,7.47031 -3.34859,11.29173 -0.39293,1.12498 0.88495,1.38262 1.63931,1.80463 3.43837,0.85801 7.69523,0.49429 10.09824,3.58827 0.0222,4.7657 -5.4263,6.58082 -6.85108,10.63306 2.74463,3.28167 8.15811,3.51133 9.89886,7.8422 l 0,0.0979 c -1.69645,4.41947 -7.26616,4.55587 -9.90586,7.95411 1.52972,4.00912 6.70185,5.80791 6.94436,10.48618 -2.73763,3.79578 -8.29102,2.22081 -11.83316,4.61649 0.12709,4.25159 4.55651,7.57172 3.34043,12.09262 -3.17603,2.1497 -7.34311,0.7986 -10.908572,0.3299 -1.276708,0.067 -2.365699,0.4698 -2.183812,2.0052 0.257673,3.6384 1.795553,7.6044 -0.218032,11.0003 -4.477224,1.456 -7.944741,-3.0439 -12.251737,-3.2502 -2.343547,3.5836 -0.840645,8.8284 -4.446909,11.8035 -4.718575,0.027 -6.609736,-5.3929 -10.634574,-6.9026 -3.398726,2.6545 -3.532809,8.2106 -7.957566,9.9068 l -0.09911,0 c -4.378119,-1.6962 -4.516866,-7.1812 -7.849134,-9.8753 -4.059816,1.3908 -5.975461,6.9842 -10.732512,6.8571 -3.56429,-2.9774 -2.166324,-8.115 -4.341975,-11.7709 -4.366459,0.049 -7.83864,4.7459 -12.359004,3.2222 -0.544495,-1.498 -1.485412,-2.9505 -0.978227,-4.6188 -0.0478,-2.6766 1.335006,-5.3777 0.383596,-7.9949 -3.237826,-0.9769 -6.561932,0.9595 -9.847561,0.5211 C 13.197213,95.9733 12.258629,95.6352 11.349193,95.2354 9.926741,90.6748 14.451769,87.29056 14.684958,82.98184 11.096183,80.61181 5.7573262,82.24623 2.8587899,78.53206 2.8739469,74.42619 6.8311604,72.2695 9.083764,69.36787 9.27731,68.77099 10.058493,67.95611 9.388075,67.39071 6.7507153,64.74672 2.1417395,64.34803 0.3765006,60.77258 -0.80926418,59.54269 1.1378619,58.24984 1.6613707,57.168 4.1972984,55.21065 7.6741427,54.5345 9.700553,52.00243 8.4425,47.85692 2.8401398,46.23765 2.8331442,41.45096 5.5894353,37.61089 11.09269,39.22666 14.689626,36.84964 14.470429,32.54441 9.743693,29.04241 11.473953,24.55766 c 3.886091,-2.45046 8.407621,0.52927 12.525734,-0.54675 1.016703,-4.11403 -1.985602,-8.84709 0.673916,-12.62422 4.508705,-1.41292 7.871286,3.08349 12.147968,3.3353 2.44032,-3.58944 0.739209,-9.1059 4.622967,-11.8723 4.739562,0.10959 6.488477,5.49315 10.562285,6.94805 2.69916,-2.17884 3.158542,-6.09936 5.611687,-8.48221 m 2.24211,-0.0653 C 55.88825,3.2577 55.937219,8.80447 52.230684,11.11505 47.866557,10.23255 46.269214,4.66013 41.788492,4.14369 38.479543,7.1957 40.37187,12.67952 37.427862,15.90407 33.03925,16.25263 29.801424,11.614 25.417475,12.45453 c -2.182647,3.94966 1.362988,8.6151 -0.483867,12.61023 -4.086633,1.54232 -8.546367,-1.72769 -12.481428,0.35673 -0.887283,4.42413 3.86044,7.66033 3.413884,12.08679 -3.299621,2.93776 -8.7352511,0.94545 -11.7503817,4.31105 0.3835955,4.09888 5.2222617,5.63071 6.5257877,9.27377 0.213367,0.46981 0.77885,1.16112 0.142245,1.55865 -2.456644,3.31897 -7.5984558,3.42622 -9.5502457,7.21734 1.8107107,4.16532 7.7908367,3.92168 9.8417317,7.88882 -1.045852,4.24693 -6.5024687,5.89068 -6.9420295,10.34862 3.1480482,3.1476 8.4740795,1.41759 11.7433855,4.26908 0.326464,4.35535 -4.116947,7.53559 -3.510657,11.89219 3.826628,2.4877 8.521884,-1.2521 12.585198,0.5794 1.788557,3.9951 -1.733759,8.5684 0.450054,12.4971 4.438748,1.0107 7.769849,-3.9835 12.157296,-3.3283 2.23628,2.9657 1.626491,6.9107 2.968492,10.2262 0.605125,0.4232 0.818493,1.7114 1.743086,1.3698 4.115782,-0.8568 5.830885,-5.9466 9.946667,-6.8746 3.747343,2.3001 3.629583,7.8923 7.643927,9.8275 4.204393,-1.7731 3.953715,-7.7827 7.889942,-9.8566 4.267354,1.069 5.861199,6.533 10.345419,6.962 3.089751,-3.1383 1.487744,-8.2351 4.132105,-11.6613 4.382782,-0.5829 7.716215,4.2155 12.165457,3.3749 2.15583,-3.9345 -1.288368,-8.4658 0.444224,-12.5402 4.074972,-1.7044 8.588343,1.7253 12.543223,-0.4454 0.82666,-4.4346 -3.99802,-7.79091 -3.36958,-12.15908 3.41156,-2.69645 8.55453,-1.01773 11.6746,-4.13735 -0.33812,-4.1595 -5.20944,-5.70649 -6.53162,-9.39385 -0.2705,-0.47564 -0.74037,-1.12148 -0.0874,-1.49336 2.32722,-3.43322 7.7337,-3.34112 9.48845,-7.27096 -1.86202,-4.10355 -7.6451,-3.94034 -9.84057,-7.79207 1.01321,-3.63373 4.7932,-5.41155 6.55494,-8.57897 0.0769,-0.63068 0.66342,-1.48637 0.17722,-2.01796 -3.1119,-2.93077 -8.12663,-1.31966 -11.44141,-3.97064 -0.57481,-4.37051 4.25803,-7.72562 3.34277,-12.15675 -3.9269,-2.17417 -8.520721,1.34881 -12.516412,-0.44416 -1.687121,-4.07789 1.745418,-8.59645 -0.45705,-12.53329 -4.43525,-0.89765 -7.740701,4.09772 -12.132811,3.34696 -2.755165,-3.35861 -0.967774,-8.57547 -4.147302,-11.64847 -4.529692,0.3987 -6.14569,6.13899 -10.50632,6.92589 C 63.794514,8.81497 63.982231,3.06301 59.86062,1.25023 Z" /><path
       style="opacity:1;fill:#f9f9f9"
       inkscape:connector-curvature="0"
       id="path6-1"
       d="m 59.86062,1.25027 c 4.121611,1.81278 3.933894,7.56474 7.727875,9.82401 4.36063,-0.7869 5.976628,-6.52719 10.50632,-6.92589 3.179528,3.073 1.392137,8.28986 4.147262,11.64847 4.39211,0.75076 7.697561,-4.24461 12.132811,-3.34696 2.202468,3.93684 -1.230071,8.4554 0.45705,12.53329 3.995691,1.79297 8.589512,-1.73001 12.516412,0.44416 0.91526,4.43113 -3.91758,7.78624 -3.34277,12.15675 3.31478,2.65098 8.32951,1.03987 11.44141,3.97064 0.4862,0.53159 -0.10027,1.38728 -0.17722,2.01796 -1.76174,3.16742 -5.54173,4.94524 -6.55494,8.57897 2.19547,3.85173 7.97855,3.68852 9.84057,7.79207 -1.75475,3.92984 -7.16123,3.83774 -9.48845,7.27096 -0.65293,0.37188 -0.18306,1.01772 0.0874,1.49336 1.32218,3.68736 6.1935,5.23435 6.53162,9.39385 -3.12007,3.11962 -8.26304,1.4409 -11.6746,4.13735 -0.62844,4.36817 4.19624,7.72444 3.36958,12.15904 -3.95488,2.1707 -8.468251,-1.259 -12.543223,0.4454 -1.732592,4.0744 1.711606,8.6057 -0.444224,12.5402 -4.449242,0.8406 -7.782675,-3.9578 -12.165457,-3.3749 -2.644361,3.4262 -1.042354,8.523 -4.132105,11.6613 -4.48422,-0.429 -6.078065,-5.893 -10.345419,-6.962 -3.936227,2.0739 -3.685549,8.0835 -7.889942,9.8566 -4.014344,-1.9352 -3.896584,-7.5274 -7.643927,-9.8275 -4.115782,0.928 -5.830885,6.0178 -9.946667,6.8746 -0.924593,0.3416 -1.137961,-0.9466 -1.743086,-1.3698 -1.342001,-3.3155 -0.732212,-7.2605 -2.968492,-10.2262 -4.387447,-0.6552 -7.718548,4.339 -12.157296,3.3283 -2.183813,-3.9287 1.338503,-8.502 -0.450054,-12.4971 C 20.887744,93.0157 16.192488,96.7555 12.36586,94.2678 11.75957,89.9112 16.202981,86.731 15.876517,82.37565 12.607251,79.52416 7.2812197,81.25417 4.1331715,78.10657 4.5727323,73.64863 10.029349,72.00488 11.075201,67.75795 9.024306,63.79081 3.04418,64.03445 1.2334693,59.86913 3.1852592,56.07801 8.327071,55.97076 10.783715,52.65179 11.42032,52.25426 10.854835,51.56295 10.64147,51.09314 9.337944,47.45008 4.4992778,45.91825 4.1156823,41.81937 7.1308129,38.45377 12.566443,40.44608 15.866064,37.50832 16.31262,33.08186 11.564897,29.84566 12.45218,25.42153 c 3.935061,-2.08442 8.394795,1.18559 12.481428,-0.35673 1.846855,-3.99513 -1.69878,-8.66057 0.483867,-12.61023 4.383949,-0.84053 7.621775,3.7981 12.010387,3.44954 2.944008,-3.22455 1.051681,-8.70837 4.36063,-11.76038 4.480722,0.51644 6.078065,6.08886 10.442192,6.97136 3.706535,-2.31058 3.657566,-7.85735 7.629936,-9.86482 m -1.125136,14.008 c -14.580127,0.24481 -28.689212,8.23739 -36.452066,20.562 -7.358271,11.28707 -9.100191,25.97939 -4.618303,38.68055 3.858108,11.42929 12.636499,21.06448 23.612693,26.05048 10.71036,4.9779 23.412151,5.3766 34.441979,1.1728 C 89.897664,96.5119 100.85987,83.57874 103.72809,68.75702 107.42763,51.63756 99.777869,32.87668 85.259539,23.11911 77.545655,17.795 68.10734,14.94584 58.735484,15.25827 Z" /><path
       style="opacity:1;fill:#f9f9f9"
       inkscape:connector-curvature="0"
       id="path8-3"
       d="M 58.735484,15.25827 C 68.10734,14.94584 77.545655,17.795 85.259539,23.11911 99.777869,32.87668 107.42763,51.63756 103.72809,68.75702 100.85987,83.57874 89.897664,96.5119 75.719787,101.7241 64.689959,105.9279 51.988168,105.5292 41.277808,100.5513 30.301614,95.5653 21.523223,85.93011 17.665115,74.50082 13.183227,61.79966 14.925147,47.10734 22.283418,35.82027 30.046272,23.49566 44.155357,15.50308 58.735484,15.25827 m 1.1298,1.1716 c -7.353607,0.10609 -14.704883,1.90605 -21.129233,5.52813 4.863151,6.90607 9.678499,13.92989 14.598782,20.74387 3.465185,-1.27653 7.290646,-1.52135 10.905072,-0.68548 C 68.105009,34.51577 72.100698,27.0338 75.906338,19.53318 70.833317,17.49773 65.340556,16.46251 59.865284,16.42987 m 17.158028,3.58244 c -3.852278,7.43884 -7.831644,14.84736 -11.575489,22.32234 1.774566,0.68198 3.523482,1.49219 5.105667,2.55422 3.398727,-7.38288 6.846422,-14.74244 10.277795,-22.11017 0.07229,-0.28561 0.58064,-0.75425 0.118926,-0.94894 -1.270879,-0.6505 -2.567408,-1.48054 -3.926899,-1.81745 m -39.513834,2.57754 c -1.239398,0.81371 -2.531264,1.56797 -3.677387,2.51225 4.52736,7.0961 9.088532,14.17354 13.540105,21.31743 1.428281,-1.28352 3.141053,-2.31873 4.769876,-3.24436 -4.663775,-6.74519 -9.411498,-13.44842 -14.105587,-20.17846 -0.08162,-0.15972 -0.263504,-0.59339 -0.527007,-0.40686 m 44.635825,0.10375 c -3.503661,7.65101 -7.139073,15.25189 -10.619415,22.90989 2.844902,2.37819 4.942435,5.57475 6.072235,9.1024 C 86.010407,54.33867 94.423857,53.91782 102.8443,53.65786 101.23997,40.91123 93.248586,29.03078 82.145303,22.6936 M 32.830546,25.96012 C 22.747464,33.84661 16.56563,46.44635 16.451367,59.2466 c 8.42511,-0.72045 16.85022,-1.43857 25.268334,-2.23247 0.601627,-3.63023 2.306237,-7.0856 4.81768,-9.76106 -4.404936,-7.06812 -8.96261,-14.0523 -13.383869,-21.11459 -0.06529,-0.0933 -0.194713,-0.29028 -0.322966,-0.17836 m 26.257053,16.81402 c -8.66063,0.14223 -16.108679,7.7944 -16.394335,16.38153 -0.232023,5.35792 2.191974,10.7718 6.395202,14.11758 6.596909,5.69133 17.61741,4.91143 23.381836,-1.61344 3.457023,-3.67103 5.184952,-8.92403 4.520364,-13.92989 C 76.004278,49.1323 67.789038,42.05952 59.087599,42.77414 m 41.277911,12.12877 c -7.477201,0.33807 -14.954398,0.62719 -22.431595,0.99208 0.320634,1.8699 0.391757,3.78295 0.331128,5.69016 8.387799,-0.7391 16.791922,-1.45256 25.179727,-2.22547 -0.0315,-1.4817 -0.12243,-2.99139 -0.30198,-4.44745 -0.84765,-0.25763 -1.883,-0.0326 -2.77728,-0.009 m -59.141335,3.35744 c -8.261878,0.81255 -16.550572,1.43274 -24.810118,2.2278 0.05363,1.46772 0.05014,3.08932 0.312473,4.59434 8.418114,-0.40336 16.857215,-0.67965 25.270666,-1.1448 -0.806834,-1.71136 -0.03614,-4.53954 -0.773021,-5.67734 m 61.574655,2.34671 c -8.231562,0.77874 -16.472452,1.45256 -24.705181,2.21498 -0.587636,3.63607 -2.270093,7.08444 -4.822344,9.74591 4.480722,7.17654 9.065213,14.30528 13.622887,21.43983 10.083082,-7.96692 16.419988,-20.548 16.452638,-33.43336 l -0.548,0.0326 m -60.758495,4.52905 c -8.350489,0.443 -16.721965,0.69248 -25.07945,1.13897 1.69878,12.75129 9.621368,24.47904 20.712991,30.96664 3.412717,-7.7163 7.221856,-15.31023 10.58677,-23.02069 -2.96383,-2.27677 -4.865484,-5.98278 -6.220311,-9.08492 m 30.202608,8.38429 c -1.304691,1.31966 -3.003471,2.2651 -4.582159,3.11379 4.712745,6.90957 9.627198,13.71073 14.376087,20.60633 1.448102,-0.4348 2.616378,-1.6531 3.924566,-2.4411 -4.467896,-7.13579 -9.010413,-14.23072 -13.555262,-21.31866 -0.04081,0.0105 -0.122424,0.0303 -0.163232,0.0396 m -22.974922,1.5225 C 45.689739,82.6277 42.186078,90.2554 38.626452,97.8504 c 1.280206,0.8009 2.7423,1.5074 4.177577,2.0751 3.771828,-7.4225 7.694063,-14.77505 11.512528,-22.17425 0.197045,-0.46748 -0.636605,-0.40453 -0.823156,-0.60621 -1.501735,-0.4733 -2.874051,-1.46072 -4.22538,-2.1019 m 17.12888,2.1019 c -3.432539,1.3558 -7.264996,1.47238 -10.845609,0.67732 -3.827793,7.5251 -7.782675,14.98834 -11.682757,22.47504 11.861146,4.8601 26.068171,3.9217 37.181947,-2.4423 C 76.172174,90.9886 71.376647,83.75268 66.396901,77.14504 Z" /><path
       style="opacity:1;fill:#f9f9f9"
       inkscape:connector-curvature="0"
       id="path10-2"
       d="m 77.023312,20.01231 c 1.359491,0.33691 2.65602,1.16695 3.926899,1.81745 0.461714,0.19469 -0.04664,0.66333 -0.118926,0.94894 -3.431373,7.36773 -6.879068,14.72729 -10.277795,22.11017 -1.582185,-1.06203 -3.331101,-1.87224 -5.105667,-2.55422 3.743845,-7.47498 7.723211,-14.8835 11.575489,-22.32234 z" /><path
       style="opacity:1;fill:#f9f9f9"
       inkscape:connector-curvature="0"
       id="path12-4"
       d="m 37.509478,22.58985 c 0.263503,-0.18653 0.44539,0.24714 0.527007,0.40686 4.694089,6.73004 9.441812,13.43327 14.105587,20.17846 -1.628823,0.92563 -3.341595,1.96084 -4.769876,3.24436 C 42.920623,39.27564 38.359451,32.1982 33.832091,25.1021 c 1.146123,-0.94428 2.437989,-1.69854 3.677387,-2.51225 z" /><path
       style="opacity:1;fill:#f9f9f9"
       inkscape:connector-curvature="0"
       id="path14-8"
       d="m 59.087599,42.77414 c 8.701439,-0.71462 16.916679,6.35816 17.903067,14.95578 0.664588,5.00586 -1.063341,10.25886 -4.520364,13.92989 -5.764426,6.52487 -16.784927,7.30477 -23.381836,1.61344 -4.203228,-3.34578 -6.627225,-8.75966 -6.395202,-14.11758 0.285656,-8.58713 7.733705,-16.2393 16.394335,-16.38153 m -0.577142,4.76571 c -5.082349,0.53276 -9.591053,4.48825 -10.701032,9.48594 -1.480748,5.61323 1.648645,12.01452 7.014318,14.24116 5.078851,2.44697 11.743386,0.71462 15.018522,-3.86689 3.621421,-4.57102 3.264642,-11.74989 -0.820825,-15.92221 -2.600054,-2.90162 -6.650543,-4.36934 -10.510983,-3.938 z" /><path
       style="opacity:1;fill:#f9f9f9"
       inkscape:connector-curvature="0"
       id="path16-1"
       d="m 58.510457,47.53985 c 3.86044,-0.43134 7.910929,1.03638 10.510983,3.938 4.085467,4.17232 4.442246,11.35119 0.820825,15.92221 -3.275136,4.58151 -9.939671,6.31386 -15.018522,3.86689 -5.365673,-2.22664 -8.495066,-8.62793 -7.014318,-14.24116 1.109979,-4.99769 5.618683,-8.95318 10.701032,-9.48594 m 0.116595,1.16578 c -3.32877,0.40919 -6.483814,2.30358 -8.245555,5.18422 -2.798265,4.24926 -2.175651,10.37426 1.492408,13.91823 3.255315,3.49967 8.880994,4.39499 13.098213,2.1835 4.312826,-2.04594 6.901221,-7.0926 6.073401,-11.79535 -0.733379,-5.80907 -6.613233,-10.29616 -12.418467,-9.4906 z" /><path
       style="opacity:1;fill:#f9f9f9"
       inkscape:connector-curvature="0"
       id="path18-2"
       d="m 100.36551,54.90291 c 0.89428,-0.0233 1.92963,-0.24831 2.77728,0.009 0.17955,1.45606 0.27049,2.96575 0.30198,4.44745 -8.387805,0.77291 -16.791928,1.48637 -25.179727,2.22547 0.06063,-1.90721 -0.01049,-3.82026 -0.331128,-5.69016 7.477197,-0.36489 14.954394,-0.65401 22.431595,-0.99208 z" /><path
       style="opacity:1;fill:#f9f9f9"
       inkscape:connector-curvature="0"
       id="path20-1"
       d="m 41.224175,58.26035 c 0.736876,1.1378 -0.03381,3.96598 0.773021,5.67734 -8.413451,0.46515 -16.852552,0.74144 -25.270666,1.1448 -0.262337,-1.50502 -0.258839,-3.12662 -0.312473,-4.59434 8.259546,-0.79506 16.54824,-1.41525 24.810118,-2.2278 z" /><path
       style="opacity:1;fill:#f9f9f9"
       inkscape:connector-curvature="0"
       id="path22-5"
       d="m 72.242943,73.5204 c 0.04081,-0.009 0.122424,-0.0291 0.163232,-0.0396 4.544849,7.08794 9.087366,14.18287 13.555262,21.3186 -1.308188,0.788 -2.476464,2.0063 -3.924566,2.4411 -4.748889,-6.8956 -9.663342,-13.6967 -14.376087,-20.60627 1.578688,-0.84869 3.277468,-1.79413 4.582159,-3.11379 z" /><path
       style="opacity:1;fill:#f9f9f9"
       inkscape:connector-curvature="0"
       id="path24-3"
       d="m 49.268021,75.0429 c 1.351329,0.64118 2.723645,1.6286 4.22538,2.1019 0.186551,0.20168 1.020201,0.13873 0.823156,0.60621 -3.818465,7.3992 -7.7407,14.75179 -11.512528,22.17429 -1.435277,-0.5677 -2.897371,-1.2742 -4.177577,-2.0751 3.559626,-7.595 7.063287,-15.22274 10.641569,-22.8073 z" /></g><g
     id="g4234"
     transform="matrix(0.52240241,0,0,0.52240241,87.410094,32.804325)"><path
       style="opacity:1;fill:#f9f9f9"
       inkscape:connector-curvature="0"
       id="path4-3"
       d="m 52.01164,110.15847 c 3.307322,2.70683 3.412242,8.26614 7.850372,9.84153 4.487091,-1.42741 4.657295,-7.0811 7.945964,-9.75996 4.136191,1.24912 5.916339,7.01351 10.727519,6.79911 3.737494,-2.88394 2.070426,-8.19739 4.432299,-11.77348 4.318054,0.20159 7.67667,4.75414 12.22788,3.29178 1.893228,-2.97717 0.83703,-6.5416 0.361392,-9.79143 -0.279788,-1.35633 -0.122407,-3.44325 1.774318,-3.16593 3.695526,0.19227 7.733796,1.85505 11.147196,-0.29946 1.39778,-4.4838 -3.17325,-7.93638 -3.26651,-12.21976 3.53698,-2.41669 8.9427,-0.69565 11.73825,-4.50711 0.0256,-4.76113 -5.42555,-6.57306 -6.84547,-10.62107 2.73959,-3.28711 8.15697,-3.50967 9.89515,-7.84316 l 0,-0.099 c -1.69738,-4.41506 -7.27098,-4.54673 -9.89865,-7.95036 1.51668,-4.00723 6.70208,-5.79819 6.9329,-10.47542 -2.72793,-3.81146 -8.30269,-2.20461 -11.82335,-4.62712 0.13173,-4.24144 4.53722,-7.55423 3.34696,-12.06483 -2.88997,-1.9832 -6.61231,-1.0126 -9.85901,-0.4999 -0.946618,0.3158 -2.063437,0.052 -2.894639,-0.3239 C 94.746848,19.9849 97.737077,15.423 95.227149,11.5556 90.749384,10.0967 87.29634,14.598 82.99927,14.7984 80.630403,11.2351 82.161074,5.9695 78.538992,3.0063 73.823406,2.9713 71.934841,8.3978 67.91173,9.8975 64.506484,7.2547 64.379413,1.6942 59.954108,0 L 59.85385,0 C 55.476342,1.6989 55.334117,7.1778 52.004646,9.8753 47.940733,8.4712 46.037011,2.8921 41.275962,3.0203 c -3.575451,2.9701 -2.154364,8.1193 -4.350696,11.7618 -4.360022,-0.049 -7.814231,-4.7425 -12.337463,-3.2172 -2.21615,3.5738 -0.0921,7.736 -0.325252,11.5719 0.14106,1.3482 -1.323162,1.3179 -2.267445,1.3785 -3.533483,-0.4568 -7.367737,-1.7945 -10.629593,0.247 -1.423419,4.5514 3.10331,7.92942 3.328306,12.22795 -3.540478,2.39338 -8.8611033,0.73177 -11.7522406,4.39874 -0.3882051,4.84037 5.5514496,6.62783 6.7382156,10.76906 -2.4038412,3.12398 -7.481984,3.2638 -9.29011066,7.04031 -1.12381305,1.06502 0.4977886,2.16849 0.92329876,3.14845 2.3595411,2.45165 6.3127051,2.87462 8.4041169,5.6199 -1.261376,4.14356 -6.8571253,5.7574 -6.86412,10.53951 2.7384201,3.85924 8.268886,2.21277 11.843171,4.61314 -0.230824,3.38616 -2.866656,6.0254 -3.561461,9.2962 0.200514,1.15474 -0.404526,3.11582 1.20192,3.32324 3.667547,2.00419 7.860862,-0.98346 11.671801,0.20974 1.032882,4.10394 -1.993485,8.84292 0.683149,12.61244 4.503412,1.41342 7.862028,-3.0797 12.131118,-3.32906 2.464462,3.56677 0.73794,9.10743 4.635146,11.85621 4.740067,-0.092 6.480578,-5.49173 10.553817,-6.92962 m 7.860863,8.52249 c -3.18608,-1.57306 -3.833089,-5.50454 -5.76945,-8.18457 -0.915139,-0.48241 -1.59479,-2.33163 -2.779224,-1.33302 -3.775964,1.28058 -5.349769,6.213 -9.523266,6.63714 -3.316648,-3.04707 -1.409429,-8.53763 -4.367017,-11.7525 -4.384503,-0.34724 -7.600893,4.27639 -11.994723,3.44908 C 23.233166,103.55749 26.802788,98.88142 24.945699,94.894 20.860801,93.34308 16.397024,96.62554 12.467177,94.52929 11.583514,90.10141 16.327079,86.88072 15.878253,82.45751 12.583755,79.50831 7.1453854,81.51251 4.1295094,78.14266 4.6634372,73.66469 10.228877,72.0858 11.109041,67.72668 8.772816,64.04106 3.2901469,64.04106 1.2593562,60.09908 3.0581565,55.93455 9.04794,56.18391 11.089223,52.21631 10.047015,47.97021 4.5911588,46.33772 4.152825,41.87606 c 3.138283,-3.15428 8.477561,-1.41342 11.738251,-4.2729 0.331082,-4.34747 -4.115208,-7.50996 -3.502007,-11.86436 3.810939,-2.6032 8.756183,1.432 12.680203,-0.7446 1.551654,-4.0271 -1.801132,-8.4631 0.349733,-12.3445 4.436964,-1.0091 7.757109,3.9793 12.146275,3.3268 2.767564,-3.3582 1.024722,-8.54 4.157176,-11.6418 4.502247,0.3635 6.217111,6.0067 10.497859,6.9121 3.763141,-2.2734 3.626746,-7.8851 7.649857,-9.8089 4.207304,1.7665 3.946168,7.7767 7.888841,9.8439 4.267924,-1.0557 5.854553,-6.53 10.339314,-6.9495 3.103309,3.1275 1.481708,8.2347 4.140854,11.6512 4.37984,0.5814 7.702316,-4.2112 12.145109,-3.3687 2.230139,3.9163 -1.394275,8.5982 0.543254,12.5693 4.058086,1.6208 8.538186,-1.7665 12.451706,0.4172 0.82887,4.4278 -3.99396,7.76975 -3.36444,12.13703 3.40291,2.71032 8.5615,1.01025 11.66947,4.14705 -0.46981,4.50128 -6.09354,6.16523 -6.94922,10.49289 2.28493,3.74156 7.95878,3.59474 9.81471,7.65207 -1.85942,4.06781 -7.52046,3.94779 -9.82404,7.70216 0.89182,4.34631 6.59832,5.95549 6.91192,10.49406 -3.05552,3.23351 -8.52886,1.36215 -11.69978,4.30436 -0.30427,4.3766 4.28191,7.5938 3.41107,11.98788 -3.91586,2.20112 -8.51836,-1.354 -12.509996,0.45794 -1.700875,4.07014 1.756832,8.59706 -0.468643,12.52155 -4.435798,0.89257 -7.725633,-4.08995 -12.118297,-3.34537 -2.76873,3.35003 -0.962934,8.58075 -4.15834,11.64414 -4.525563,-0.40201 -6.136674,-6.13727 -10.496695,-6.91914 -3.796949,2.24191 -3.603429,8.01562 -7.724466,9.80308 z" /><path
       style="opacity:1;fill:#f9f9f9"
       inkscape:connector-curvature="0"
       id="path6-9"
       d="m 59.872503,118.68096 c 4.121037,-1.78746 3.927517,-7.56117 7.724466,-9.80308 4.360021,0.78187 5.971132,6.51713 10.496695,6.91914 3.195406,-3.06339 1.38961,-8.29411 4.15834,-11.64414 4.392664,-0.74458 7.682499,4.23794 12.118297,3.34537 2.225475,-3.92449 -1.232232,-8.45141 0.468643,-12.52155 3.991636,-1.81194 8.594136,1.74318 12.509996,-0.45794 0.87084,-4.39408 -3.71534,-7.61128 -3.41107,-11.98788 3.17092,-2.94221 8.64426,-1.07085 11.69978,-4.30436 -0.3136,-4.53857 -6.0201,-6.14775 -6.91192,-10.49406 2.30358,-3.75437 7.96462,-3.63435 9.82404,-7.70216 -1.85593,-4.05733 -7.52978,-3.91051 -9.81471,-7.65207 0.85568,-4.32766 6.47941,-5.99161 6.94922,-10.49289 -3.10797,-3.1368 -8.26656,-1.43673 -11.66947,-4.14705 -0.62952,-4.36728 4.19331,-7.70919 3.36444,-12.13699 -3.91352,-2.1837 -8.39362,1.2036 -12.451706,-0.4172 C 92.990015,21.213 96.614429,16.5311 94.38429,12.6148 89.941497,11.7723 86.619021,16.5649 82.239181,15.9835 79.580035,12.567 81.201636,7.4598 78.098327,4.3323 73.613566,4.7518 72.026937,10.2261 67.759013,11.2818 63.81634,9.2146 64.077476,3.2044 59.870172,1.4379 55.847061,3.3617 55.983456,8.9734 52.220315,11.2468 47.939567,10.3414 46.224703,4.6982 41.722456,4.3347 38.590002,7.4365 40.332844,12.6183 37.56528,15.9765 33.176114,16.629 29.855969,11.6406 25.419005,12.6497 c -2.150865,3.8814 1.201921,8.3174 -0.349733,12.3445 -3.92402,2.1766 -8.869264,-1.8586 -12.680203,0.7446 -0.613201,4.3544 3.833089,7.51685 3.502007,11.86432 -3.26069,2.85948 -8.599968,1.11862 -11.738251,4.2729 0.4383338,4.46166 5.89419,6.09415 6.936398,10.34025 -2.041283,3.9676 -8.0310665,3.71824 -9.8298668,7.88277 2.0307907,3.94198 7.5134598,3.94198 9.8496848,7.6276 -0.880164,4.35912 -6.4456038,5.93801 -6.9795316,10.41598 3.015876,3.36985 8.4542456,1.36565 11.7487436,4.31485 0.448826,4.42321 -4.294739,7.6439 -3.411076,12.07178 3.929847,2.09625 8.393624,-1.18621 12.478522,0.36471 1.857089,3.98742 -1.712533,8.66349 0.493124,12.60313 4.39383,0.82731 7.61022,-3.79632 11.994723,-3.44908 2.957588,3.21487 1.050369,8.70543 4.367017,11.7525 4.173497,-0.42414 5.747302,-5.35656 9.523266,-6.63714 1.184434,-0.99861 1.864085,0.85061 2.779224,1.33302 1.936361,2.68003 2.58337,6.61151 5.76945,8.18457 M 58.742862,104.69588 C 47.345018,104.44419 36.118546,99.61198 28.165586,91.44139 20.323376,83.62153 15.596134,72.75227 15.280206,61.67793 14.918815,52.17432 17.63625,42.52156 23.125913,34.72617 30.13459,24.4186 41.669996,17.3456 54.0401,15.7597 c 16.066797,-2.2745 33.025415,5.063 42.273558,18.4025 10.860422,14.73899 11.006142,36.26311 0.417349,51.17921 -8.327175,12.30366 -23.124435,19.89397 -37.988145,19.35447 z" /><path
       style="opacity:1;fill:#f9f9f9"
       inkscape:connector-curvature="0"
       id="path8-32"
       d="m 58.742862,104.69588 c 14.86371,0.5395 29.66097,-7.05081 37.988145,-19.35447 C 107.3198,70.42531 107.17408,48.90119 96.313658,34.1622 87.065515,20.8227 70.106897,13.4852 54.0401,15.7597 41.669996,17.3456 30.13459,24.4186 23.125913,34.72617 c -5.489663,7.79539 -8.207098,17.44815 -7.845707,26.95176 0.315928,11.07434 5.04317,21.9436 12.88538,29.76346 7.95296,8.17059 19.179432,13.0028 30.577276,13.25449 m 1.113321,-1.15591 c -4.85781,0.0326 -9.574562,-3.03076 -11.42349,-7.53438 -2.571714,-5.44162 -0.362558,-12.49242 4.759884,-15.61291 4.986046,-3.28361 12.285002,-2.29783 16.125085,2.31065 3.785292,4.06782 4.17816,10.74342 1.007236,15.28082 -2.263948,3.45374 -6.34185,5.60126 -10.468715,5.55582 m -7.156731,-0.58495 C 42.287859,101.2398 32.569907,95.56281 26.018217,87.29434 c 5.397568,3.33022 13.026439,2.25239 17.206931,-2.53205 2.963415,-3.16593 4.231785,-7.79538 3.309652,-12.03449 2.49244,2.45631 5.602745,4.36262 9.040633,5.18993 -4.241112,1.5148 -7.7676,5.08274 -8.898407,9.47915 -1.651912,5.68166 0.93962,12.25239 6.042244,15.25402 0.236653,0.0804 0.971096,0.71428 -0.01982,0.30412 m 13.935748,0.0746 c 4.227123,-2.51573 7.309448,-7.40154 6.971372,-12.47379 -0.03614,-5.6467 -4.047592,-10.8343 -9.353062,-12.61594 3.406412,-0.86693 6.542363,-2.72896 9.031305,-5.20974 -1.328989,5.89956 1.819786,12.31182 7.192871,15.01515 4.137357,2.15218 9.323917,1.9203 13.320216,-0.44395 -6.647285,8.39548 -16.576243,14.1086 -27.162702,15.72827 M 32.172374,88.02843 c -5.148089,-0.30645 -9.859011,-4.15055 -11.1472,-9.14239 -1.583131,-5.15847 0.791566,-11.16639 5.374251,-13.96994 2.676634,-1.73386 6.007271,-2.30599 9.126902,-1.69308 6.087709,1.03939 10.731015,7.15102 10.081676,13.29644 -0.340409,6.66977 -6.782515,12.20345 -13.435629,11.50897 m 53.857926,0 C 80.350614,87.84549 75.224673,83.27196 74.364327,77.66255 c -1.587793,-7.52039 5.216871,-15.3251 12.901701,-14.64344 6.667103,0.0478 12.429562,6.30506 11.990062,12.93638 -0.028,6.77814 -6.445607,12.71149 -13.22579,12.07294 M 58.500376,77.20811 C 52.74608,76.74668 47.304214,73.21836 44.690532,68.04941 41.898487,62.93288 42.064027,56.38779 45.04493,51.39012 c 3.018208,-5.27733 9.037136,-8.77068 15.144664,-8.52132 4.923094,-0.0163 9.771578,2.33395 12.904032,6.11279 4.568696,5.25635 5.347438,13.35936 1.883902,19.39408 -3.13362,5.82149 -9.885824,9.46632 -16.477152,8.83244 M 19.321968,75.75623 C 15.40844,65.7877 15.463232,54.37427 19.298648,44.39175 c -0.08743,6.86786 5.591087,13.38965 12.589272,13.8639 3.758478,0.34724 7.48548,-1.00093 10.370789,-3.37334 -0.993245,3.36985 -0.916305,6.97507 -0.0082,10.35307 -4.716752,-4.18551 -12.28034,-4.57936 -17.315348,-0.73526 -3.540478,2.57515 -5.617901,6.92729 -5.613238,11.25611 m 81.090577,-0.0629 c 0.2145,-5.54649 -3.446051,-10.92636 -8.609296,-12.90025 -4.721414,-1.96691 -10.398768,-0.8716 -14.236521,2.45513 1.046872,-3.39198 0.913974,-7.06595 -0.01399,-10.46958 4.299402,3.97226 11.19966,4.66325 16.182209,1.58238 4.232952,-2.41552 6.836148,-7.29317 6.753368,-12.09975 3.92752,10.00583 3.93219,21.47635 0.0128,31.48567 l -0.0886,-0.0536 M 31.592911,57.04034 C 25.604293,56.40762 20.636899,50.99629 20.547134,44.97672 c -0.197016,-4.99068 2.877147,-9.92077 7.481983,-11.87253 5.271663,-2.48199 12.16143,-0.55348 15.368494,4.30902 3.042689,4.19949 2.971577,10.28548 -0.08627,14.45933 -2.561221,3.69961 -7.261651,5.73526 -11.718433,5.1678 m 53.625935,0 C 79.035539,56.39946 73.967888,50.62342 74.175397,44.41158 c -0.0047,-5.40317 3.886715,-10.49289 9.101254,-11.90515 3.967154,-1.18038 8.455411,-0.15731 11.597191,2.51223 4.674788,3.83477 5.806758,11.17689 2.480784,16.22349 -2.470291,4.06782 -7.415535,6.41343 -12.135783,5.79819 M 46.530062,47.40505 C 47.980295,41.19671 44.38619,34.33118 38.478011,31.96227 34.520184,30.169 29.794108,30.6607 26.049619,32.75812 32.602475,24.5817 42.212009,18.8825 52.564146,17.1685 c 0.90348,-0.3507 0.410354,0.1701 0.136397,0.2995 -4.904442,2.913 -7.553098,9.14 -6.141337,14.68653 0.96177,4.66208 4.646805,8.512 9.090762,10.02214 -3.468198,0.80867 -6.635626,2.69401 -9.119906,5.22838 M 73.19381,47.2629 c -2.448141,-2.34794 -5.420882,-4.22979 -8.752685,-5.00816 -0.32059,-0.0396 -0.07228,-0.25286 0.11308,-0.26567 6.086544,-2.04149 10.134136,-8.80564 8.877424,-15.14097 -0.571232,-4.1366 -3.34929,-7.6812 -6.837306,-9.8323 10.572469,1.6931 20.525908,7.313 27.168531,15.73649 C 89.898289,30.5034 84.984521,30.2389 80.926437,32.14171 75.211777,34.59219 72.030361,41.51482 73.19381,47.2629 M 58.284635,41.54744 C 53.147037,40.93337 48.673934,36.83759 47.657373,31.76185 45.950669,25.014 51.047465,17.6381 57.917414,16.7164 65.14409,15.3309 72.621411,21.5125 72.44771,28.9 72.840578,36.2841 65.58359,42.73947 58.284635,41.54744 M 53.232139,17.0974 c 0.05829,-0.057 0.05829,-0.057 0,0 z" /><path
       style="opacity:1;fill:#f9f9f9"
       inkscape:connector-curvature="0"
       id="path10-23"
       d="m 52.699452,102.95502 c 0.990914,0.41016 0.256471,-0.22372 0.01982,-0.30412 -5.102624,-3.00163 -7.694156,-9.57236 -6.042244,-15.25402 1.130807,-4.39641 4.657295,-7.96435 8.898407,-9.47915 -3.437888,-0.82731 -6.548193,-2.73362 -9.040633,-5.18993 0.922133,4.23911 -0.346237,8.86856 -3.309652,12.03449 -4.180492,4.78444 -11.809363,5.86227 -17.206931,2.53205 6.55169,8.26847 16.269642,13.94546 26.681235,15.66068 z" /><path
       style="opacity:1;fill:#f9f9f9"
       inkscape:connector-curvature="0"
       id="path12-5"
       d="m 66.6352,103.0296 c 10.586459,-1.61967 20.515417,-7.33279 27.162702,-15.72827 -3.996299,2.36425 -9.182859,2.59613 -13.320216,0.44395 -5.373085,-2.70333 -8.52186,-9.11559 -7.192871,-15.01515 -2.488942,2.48078 -5.624893,4.34281 -9.031305,5.20974 5.30547,1.78164 9.316922,6.96924 9.353062,12.61594 0.338076,5.07225 -2.744249,9.95806 -6.971372,12.47379 z" /><path
       style="opacity:1;fill:#f9f9f9"
       inkscape:connector-curvature="0"
       id="path14-6"
       d="M 58.500378,77.20811 C 65.091706,77.84199 71.84391,74.19716 74.97753,68.37567 78.441066,62.34095 77.662324,54.23794 73.093628,48.98159 69.961174,45.20275 65.11269,42.85248 60.189596,42.8688 54.082068,42.61944 48.06314,46.11279 45.044932,51.39012 c -2.980903,4.99767 -3.146443,11.54276 -0.354398,16.65929 2.613682,5.16895 8.055548,8.69727 13.809844,9.1587 m 0.02565,-4.78676 c -5.054827,-0.5162 -9.538422,-4.43021 -10.684384,-9.38127 -1.534169,-5.63505 1.593622,-12.08576 6.988857,-14.33348 4.949907,-2.36892 11.422324,-0.80867 14.762288,3.54113 3.117299,3.71009 3.659387,9.34397 1.326659,13.58774 -2.255786,4.46166 -7.428358,7.19762 -12.39342,6.58588 z" /><path
       style="opacity:1;fill:#f9f9f9"
       inkscape:connector-curvature="0"
       id="path16-3"
       d="m 19.32197,75.75623 c -0.0047,-4.32882 2.07276,-8.68096 5.613237,-11.25611 5.035008,-3.8441 12.598596,-3.45025 17.315348,0.73526 -0.908145,-3.378 -0.985085,-6.98322 0.0082,-10.35307 -2.885309,2.37241 -6.61231,3.72058 -10.370789,3.37334 -6.998185,-0.47425 -12.676705,-6.99604 -12.589271,-13.8639 -3.835421,9.98252 -3.890213,21.39595 0.02332,31.36448 z" /><path
       style="opacity:1;fill:#f9f9f9"
       inkscape:connector-curvature="0"
       id="path18-7"
       d="m 100.41254,75.69331 0.0886,0.0536 c 3.91936,-10.00932 3.9147,-21.47984 -0.0128,-31.48567 0.0828,4.80658 -2.520417,9.68423 -6.753368,12.09975 -4.982549,3.08087 -11.882807,2.38988 -16.182209,-1.58238 0.927963,3.40363 1.060861,7.0776 0.01399,10.46958 3.837753,-3.32673 9.515107,-4.42204 14.236521,-2.45513 5.163245,1.97389 8.823796,7.35376 8.609296,12.90025 z" /><path
       style="opacity:1;fill:#f9f9f9"
       inkscape:connector-curvature="0"
       id="path20-9"
       d="m 58.526026,72.42135 c 4.965062,0.61174 10.137634,-2.12422 12.39342,-6.58588 2.332728,-4.24377 1.79064,-9.87765 -1.326659,-13.58774 -3.339964,-4.3498 -9.812381,-5.91005 -14.762288,-3.54113 -5.395235,2.24772 -8.523026,8.69843 -6.988857,14.33348 1.145962,4.95106 5.629557,8.86507 10.684384,9.38127 m 0.116578,-1.16407 C 52.861495,70.71312 48.142413,65.14449 48.667015,59.34864 48.879186,53.512 54.32455,48.44791 60.186098,48.81496 66.428856,48.6996 71.848573,54.71685 71.137446,60.90305 70.893798,67.07294 64.751297,72.12654 58.642604,71.25728 Z" /><path
       style="opacity:1;fill:#f9f9f9"
       inkscape:connector-curvature="0"
       id="path22-1"
       d="m 46.530137,47.40503 c 2.48428,-2.53437 5.651708,-4.41971 9.119906,-5.22838 C 51.206086,40.66651 47.521051,36.81659 46.559281,32.15451 45.14752,26.608 47.796176,20.381 52.700618,17.468 c 0.273957,-0.1294 0.767083,-0.6502 -0.136397,-0.2995 -10.352137,1.714 -19.961671,7.4132 -26.514527,15.5896 3.744489,-2.0974 8.470565,-2.5891 12.428392,-0.79585 5.908179,2.36891 9.502284,9.23444 8.052051,15.44278 z" /><path
       style="opacity:1;fill:#f9f9f9"
       inkscape:connector-curvature="0"
       id="path24-35"
       d="M 73.193885,47.26288 C 72.030436,41.5148 75.211852,34.59217 80.926512,32.14169 84.984596,30.2389 89.898364,30.5034 93.762929,32.75227 87.120306,24.3288 77.166867,18.7089 66.594398,17.0158 c 3.488016,2.1511 6.266074,5.6957 6.837306,9.8323 1.256712,6.33531 -2.79088,13.09946 -8.877424,15.14095 -0.185359,0.0128 -0.43367,0.22605 -0.11308,0.26567 3.331803,0.77837 6.304544,2.66022 8.752685,5.00816 z" /><path
       style="opacity:1;fill:#f9f9f9"
       inkscape:connector-curvature="0"
       id="path26"
       d="m 53.232214,17.0974 c 0.05829,-0.057 0.05829,-0.057 0,0 z" /></g></svg>